<svg width="1600" height="1000" viewBox="0 0 1600 1000" fill="none" xmlns="http://www.w3.org/2000/svg">
  <defs>
    <linearGradient id="sky" x1="0" y1="0" x2="0" y2="520" gradientUnits="userSpaceOnUse">
      <stop stop-color="#1d2a2f" />
      <stop offset="1" stop-color="#0f161a" />
    </linearGradient>
    <linearGradient id="forest" x1="0" y1="460" x2="0" y2="780" gradientUnits="userSpaceOnUse">
      <stop stop-color="#33402f" />
      <stop offset="1" stop-color="#1e241c" />
    </linearGradient>
    <linearGradient id="asphalt" x1="0" y1="680" x2="0" y2="1000" gradientUnits="userSpaceOnUse">
      <stop stop-color="#232831" />
      <stop offset="1" stop-color="#1b1f27" />
    </linearGradient>
    <linearGradient id="car" x1="0" y1="0" x2="1" y2="1">
      <stop stop-color="#f5821f" />
      <stop offset="1" stop-color="#c1461d" />
    </linearGradient>
  </defs>

  <rect width="1600" height="520" fill="url(#sky)" />
  <rect y="520" width="1600" height="260" fill="url(#forest)" />
  <rect y="680" width="1600" height="320" fill="url(#asphalt)" />

  <rect y="832" width="1600" height="24" fill="#3fa39b" opacity="0.9" />
  <rect y="858" width="1600" height="18" fill="#5fc6bd" opacity="0.8" />
  <rect y="876" width="1600" height="12" fill="#7adbd2" opacity="0.7" />

  <rect x="120" y="720" width="1360" height="12" rx="6" fill="#c2c6ce" opacity="0.7" />
  <rect x="120" y="750" width="1360" height="10" rx="5" fill="#b5bcc6" opacity="0.7" />

  <g filter="url(#blur)">
    <ellipse cx="800" cy="720" rx="360" ry="32" fill="#0c0c10" opacity="0.4" />
  </g>

  <g transform="translate(520 600)">
    <rect x="0" y="40" width="620" height="140" rx="48" fill="#11151c" />
    <rect x="40" y="0" width="540" height="180" rx="40" fill="#151b23" />
    <rect x="62" y="24" width="496" height="120" rx="34" fill="#0f131a" />
    <rect x="90" y="64" width="440" height="74" rx="24" fill="url(#car)" />

    <rect x="120" y="50" width="90" height="90" rx="16" fill="#0c0e13" />
    <rect x="410" y="50" width="90" height="90" rx="16" fill="#0c0e13" />

    <rect x="154" y="80" width="62" height="62" rx="12" fill="#d4d8e0" />
    <rect x="444" y="80" width="62" height="62" rx="12" fill="#d4d8e0" />

    <rect x="168" y="92" width="36" height="36" rx="9" fill="#9fa5b0" />
    <rect x="458" y="92" width="36" height="36" rx="9" fill="#9fa5b0" />

    <rect x="240" y="88" width="160" height="68" rx="18" fill="#0c0f15" />
    <rect x="254" y="98" width="132" height="48" rx="12" fill="#1d232c" />
    <rect x="284" y="112" width="72" height="24" rx="8" fill="#8dd0c1" />

    <rect x="360" y="40" width="28" height="24" rx="8" fill="#f5821f" />
    <rect x="360" y="20" width="20" height="20" rx="6" fill="#eae7de" />

    <rect x="58" y="142" width="170" height="12" rx="6" fill="#e8e8e0" />
    <rect x="392" y="142" width="170" height="12" rx="6" fill="#e8e8e0" />
  </g>

  <defs>
    <filter id="blur" x="320" y="680" width="960" height="80" filterUnits="userSpaceOnUse" color-interpolation-filters="sRGB">
      <feGaussianBlur stdDeviation="24" />
    </filter>
  </defs>
</svg>
